<?xml version="1.0" encoding="UTF-8"?>
<!DOCTYPE svg PUBLIC "-//W3C//DTD SVG 1.1//EN" "http://www.w3.org/Graphics/SVG/1.1/DTD/svg11.dtd">
<!-- Creator: CorelDRAW 2019 (64-Bit) -->
<svg xmlns="http://www.w3.org/2000/svg" xml:space="preserve" width="30" height="30" version="1.1" style="shape-rendering:geometricPrecision; text-rendering:geometricPrecision; image-rendering:optimizeQuality; fill-rule:evenodd; clip-rule:evenodd"
viewBox="0 0 1073 1054"
 xmlns:xlink="http://www.w3.org/1999/xlink"
 xmlns:xodm="http://www.corel.com/coreldraw/odm/2003">
 <defs>
  <style type="text/css">
   <![CDATA[
    .fil0 {fill:#2B2A29;fill-rule:nonzero}
    .fil1 {fill:#878686;fill-rule:nonzero}
   ]]>
  </style>
 </defs>
 <g id="Слой_x0020_1">
  <metadata id="CorelCorpID_0Corel-Layer"/>
  <path class="fil0" d="M0 531c0,66 13,135 37,196l46 -18c-22,-57 -34,-116 -34,-178 2,-268 214,-480 482,-482 114,0 218,39 306,110l-43 51 157 11 -40 -152 -43 51c-94,-78 -217,-122 -338,-122 -295,2 -530,236 -531,531z"/>
  <path class="fil1" d="M1072 541c2,-66 -8,-135 -31,-197l-47 17c21,59 29,116 28,179 -10,266 -229,471 -495,465l-3 0c-112,-5 -218,-46 -302,-121l44 -50 -156 -20 34 156 44 -50c92,83 210,128 334,133 293,10 539,-219 549,-512zm-548 463l-2 50 2 -50z"/>
 </g>
</svg>
